<svg width="23" height="23" fill="none" xmlns="http://www.w3.org/2000/svg"><path d="M11.503 5.603A5.887 5.887 0 005.607 11.5a5.887 5.887 0 005.896 5.897 5.887 5.887 0 005.895-5.897 5.887 5.887 0 00-5.895-5.897zm0 9.73A3.84 3.84 0 017.67 11.5a3.837 3.837 0 013.833-3.834 3.837 3.837 0 013.832 3.834 3.84 3.84 0 01-3.832 3.834zm7.511-9.971c0 .765-.615 1.375-1.375 1.375a1.375 1.375 0 111.375-1.375zm3.905 1.396c-.087-1.843-.508-3.475-1.857-4.82C19.717.595 18.086.174 16.244.082c-1.899-.108-7.59-.108-9.488 0C4.92.168 3.288.589 1.938 1.934.588 3.278.173 4.91.081 6.753c-.108 1.899-.108 7.59 0 9.49.087 1.842.508 3.474 1.857 4.818 1.35 1.345 2.976 1.766 4.818 1.858 1.899.108 7.59.108 9.488 0 1.842-.087 3.473-.508 4.818-1.858 1.344-1.344 1.765-2.976 1.857-4.819.108-1.899.108-7.585 0-9.484zM20.466 18.28a3.88 3.88 0 01-2.185 2.186c-1.514.6-5.106.462-6.778.462-1.673 0-5.27.133-6.779-.462A3.88 3.88 0 012.54 18.28c-.6-1.514-.462-5.107-.462-6.78s-.134-5.27.462-6.78a3.881 3.881 0 012.185-2.186c1.514-.6 5.106-.462 6.779-.462 1.672 0 5.27-.133 6.778.462a3.88 3.88 0 012.186 2.186c.6 1.514.461 5.107.461 6.78s.139 5.27-.462 6.78z" fill="#1C1F4A"/></svg>