<svg width="23" height="23" fill="none" xmlns="http://www.w3.org/2000/svg"><path d="M18.516 5.33a4.885 4.885 0 01-.424-.247 5.968 5.968 0 01-1.09-.926c-.813-.93-1.117-1.874-1.229-2.535h.005c-.094-.548-.055-.903-.05-.903h-3.703v14.32c0 .192 0 .382-.008.57l-.003.07c0 .01 0 .021-.003.032v.008a3.144 3.144 0 01-1.582 2.496 3.09 3.09 0 01-1.532.404 3.134 3.134 0 01-3.124-3.144 3.134 3.134 0 013.124-3.145c.326 0 .651.051.962.152l.004-3.77a6.88 6.88 0 00-5.3 1.55 7.268 7.268 0 00-1.586 1.956c-.157.27-.747 1.352-.818 3.11-.045.998.255 2.032.398 2.459v.009c.09.251.438 1.11 1.005 1.834.457.58.998 1.09 1.604 1.513v-.01l.009.01c1.793 1.218 3.78 1.138 3.78 1.138.345-.014 1.497 0 2.806-.62 1.452-.688 2.279-1.713 2.279-1.713a7.118 7.118 0 001.242-2.063c.335-.88.447-1.937.447-2.36V7.928c.044.027.643.423.643.423s.862.553 2.207.912c.965.256 2.265.31 2.265.31V5.897c-.456.05-1.38-.094-2.328-.567z" fill="#F4F4F4"/></svg>