<svg width="23" height="21" fill="none" xmlns="http://www.w3.org/2000/svg"><path d="M20.636 5.079c.014.223.014.445.014.668 0 6.799-4.743 14.631-13.411 14.631-2.671 0-5.152-.843-7.239-2.308.38.048.744.064 1.138.064 2.204 0 4.233-.812 5.853-2.197-2.073-.048-3.81-1.529-4.408-3.567.292.048.584.08.89.08.424 0 .847-.064 1.24-.175C2.555 11.797.935 9.728.935 7.228v-.064c.627.382 1.357.621 2.13.653-1.269-.923-2.1-2.5-2.1-4.283 0-.955.233-1.83.641-2.595 2.32 3.12 5.809 5.159 9.72 5.381a6.317 6.317 0 01-.117-1.178C11.208 2.308 13.31 0 15.922 0c1.357 0 2.583.62 3.444 1.624A8.826 8.826 0 0022.358.382c-.35 1.194-1.095 2.197-2.073 2.834A8.837 8.837 0 0023 2.42a10.683 10.683 0 01-2.364 2.659z" fill="#1C1F4A"/></svg>