<svg width="23" height="21" fill="none" xmlns="http://www.w3.org/2000/svg"><path d="M20.636 5.457c.014.223.014.446.014.669 0 6.798-4.743 14.63-13.411 14.63-2.671 0-5.152-.843-7.239-2.308.38.048.744.064 1.138.064 2.204 0 4.233-.812 5.853-2.197-2.073-.048-3.81-1.528-4.408-3.566.292.047.584.08.89.08.424 0 .847-.064 1.24-.176C2.555 12.176.935 10.106.935 7.606v-.063c.627.382 1.357.62 2.13.652-1.269-.923-2.1-2.5-2.1-4.282 0-.955.233-1.831.641-2.595 2.32 3.12 5.809 5.158 9.72 5.38a6.317 6.317 0 01-.117-1.177c0-2.834 2.102-5.143 4.714-5.143 1.357 0 2.583.621 3.444 1.624A8.826 8.826 0 0022.358.761c-.35 1.194-1.095 2.197-2.073 2.833A8.837 8.837 0 0023 2.798a10.682 10.682 0 01-2.364 2.66z" fill="#F4F4F4"/></svg>